<svg xmlns="http://www.w3.org/2000/svg" width="1200" height="250" viewBox="0 0 1200 250" role="img" aria-labelledby="title desc">
  <title id="title">Aaqib Khan — Hydropower Engineering × Software Systems</title>
  <desc id="desc">Deputy Director, Mechanical and Hydraulics. Building practical software systems alongside hydropower engineering.</desc>
  <defs>
    <linearGradient id="bg" x1="0" y1="0" x2="1" y2="1">
      <stop offset="0" stop-color="#f8fafc"/>
      <stop offset="1" stop-color="#eef5ff"/>
    </linearGradient>
    <linearGradient id="accent" x1="0" y1="0" x2="1" y2="1">
      <stop offset="0" stop-color="#2563eb"/>
      <stop offset="1" stop-color="#0f766e"/>
    </linearGradient>
  </defs>
  <rect width="1200" height="250" rx="24" fill="url(#bg)"/>
  <rect x="1" y="1" width="1198" height="248" rx="23" fill="none" stroke="#dbe4ee"/>
  <rect x="52" y="40" width="5" height="170" rx="2.5" fill="url(#accent)"/>

  <text x="86" y="84" font-family="-apple-system,BlinkMacSystemFont,Segoe UI,Helvetica,Arial,sans-serif" font-size="40" font-weight="700" fill="#0f172a">Aaqib Khan</text>
  <text x="86" y="126" font-family="-apple-system,BlinkMacSystemFont,Segoe UI,Helvetica,Arial,sans-serif" font-size="24" font-weight="650" fill="#1e293b">Hydropower Engineering × Software Systems</text>
  <text x="86" y="164" font-family="-apple-system,BlinkMacSystemFont,Segoe UI,Helvetica,Arial,sans-serif" font-size="17" fill="#475569">Deputy Director, Mechanical &amp; Hydraulics</text>
  <text x="86" y="198" font-family="ui-monospace,SFMono-Regular,Menlo,Consolas,monospace" font-size="14" fill="#64748b">reliability · architecture · automation · practical systems</text>

  <g transform="translate(965 125)">
    <circle r="72" fill="none" stroke="#dbeafe" stroke-width="2"/>
    <circle r="48" fill="none" stroke="#ccfbf1" stroke-width="2"/>
    <circle r="20" fill="url(#accent)"/>
    <g stroke="#2563eb" stroke-width="5" stroke-linecap="round" opacity=".92">
      <line x1="0" y1="-68" x2="0" y2="-32"/>
      <line x1="68" y1="0" x2="32" y2="0"/>
      <line x1="0" y1="68" x2="0" y2="32"/>
      <line x1="-68" y1="0" x2="-32" y2="0"/>
      <line x1="48" y1="-48" x2="24" y2="-24"/>
      <line x1="48" y1="48" x2="24" y2="24"/>
      <line x1="-48" y1="48" x2="-24" y2="24"/>
      <line x1="-48" y1="-48" x2="-24" y2="-24"/>
    </g>
    <g fill="#0f766e">
      <circle cx="102" cy="-40" r="6"/>
      <circle cx="126" cy="0" r="6"/>
      <circle cx="102" cy="40" r="6"/>
    </g>
    <g stroke="#94a3b8" stroke-width="2">
      <line x1="73" y1="-22" x2="98" y2="-38"/>
      <line x1="78" y1="0" x2="120" y2="0"/>
      <line x1="73" y1="22" x2="98" y2="38"/>
    </g>
  </g>
</svg>